# xmcd
#
# Track frame offsets:
# 187
# 11625
# 28460
# 41852
# 53777
# 69902
# 81832
# 93827
# 106590
# 122017
# 135600
# 146597
# 158270
# 170040
# 184407
# 196570
# 208785
# 221575
# 234620
# 248502
# 262127
# 273642
#
# Disc length: 3844 seconds
#
#
# Revision: 0
# Processed by: cddbd v1.5.1PL0 Copyright (c) Steve Scherf et al.
# Submitted via: FreeRIP 2.942 
#
DISCID=3b0f0216
DTITLE=Conway Twitty and Loretta Lynn - 22 Legendary Duets
DYEAR=1900
DGENRE=Country
TTITLE0=Louisiana Woman, Mississippi Man
TTITLE1=Making Believe
TTITLE2=Release Me
TTITLE3=After The Fire Is Gone
TTITLE4=Country Bumpkin
TTITLE5=It's Only Make Believe
TTITLE6=From Seven Till Ten
TTITLE7=I've Already Loved You In My Mind
TTITLE8=The State Of Our Union
TTITLE9=Feelins'
TTITLE10=Lead Me On
TTITLE11=Lovin' What Your Lovin' Does To Me
TTITLE12=Let Your Love Flow
TTITLE13=I Still Believe In Waltzes
TTITLE14=You Know Just What I'd Do
TTITLE15=As Soon As I Hang Up The Phone
TTITLE16=The Lettle
TTITLE17=It's True Love
TTITLE18=The Sadness Of It All
TTITLE19=Bye Bye Love
TTITLE20=You're The Reason Our Kids Are Ugly
TTITLE21=God Bless America Again
EXTD=
EXTT0=
EXTT1=
EXTT2=
EXTT3=
EXTT4=
EXTT5=
EXTT6=
EXTT7=
EXTT8=
EXTT9=
EXTT10=
EXTT11=
EXTT12=
EXTT13=
EXTT14=
EXTT15=
EXTT16=
EXTT17=
EXTT18=
EXTT19=
EXTT20=
EXTT21=
PLAYORDER=
